<svg xmlns="http://www.w3.org/2000/svg" width="76" height="70" fill="none" viewBox="0 0 76 70">
  <path fill="#000" d="M34.035 1.124c-2.101 1.622-2.462 4.084-1.2 8.107 1.38 4.383 1.32 10.388-.06 17.534l-1.021 5.404-1.382-3.002c-2.882-6.365-4.383-11.89-4.263-15.613.06-1.981.12-4.323.12-5.224.12-3.903-4.323-6.665-8.167-5.044-2.522 1.02-3.422 2.282-3.783 5.044-.24 1.982-.06 2.642 1.562 4.444 2.702 3.062 3.062 4.624 3.062 12.37l-.06 7.025-2.342-2.582c-3.723-4.143-5.044-7.386-4.564-11.409.3-2.822.18-3.783-.84-5.404C9.055 9.47 5.873 8.81 2.69 10.972c-3.723 2.522-3.543 7.506.3 10.389 1.682 1.32 1.982 1.981 2.342 5.104.24 1.921 1.201 6.545 2.102 10.148 1.501 5.825 2.102 7.086 4.744 10.388 1.621 2.102 3.422 4.684 3.963 5.765.96 1.862.96 2.102-.54 6.185-2.583 7.206-2.102 8.047 5.404 9.968 5.765 1.441 27.262 1.441 33.867 0 7.086-1.561 7.987-3.302 5.104-10.148-.9-2.162-1.38-4.203-1.2-5.044.18-.72 2.041-3.423 4.023-6.005 3.542-4.444 3.723-4.864 5.404-11.77.9-3.963 1.861-8.586 2.042-10.328.36-2.582.72-3.242 2.341-4.263 4.144-2.703 3.904-8.827-.42-10.87-2.642-1.26-4.804-.78-7.146 1.622-1.741 1.742-1.801 1.922-1.38 5.585.36 3.363.18 4.203-1.082 6.725-.84 1.622-2.462 4.023-3.663 5.345l-2.101 2.401-.18-3.602c-.42-9.308.36-13.091 3.002-15.553 4.504-4.023-.42-11.89-6.185-9.968-3.603 1.2-4.203 2.462-4.023 8.467.12 4.624-.06 6.065-1.622 10.748-1.02 3.003-2.341 6.426-2.942 7.627l-1.14 2.161-.962-5.404c-1.26-6.785-1.32-13.631-.12-16.994 1.321-3.723 1.141-6.185-.6-8.046-1.742-1.922-5.765-2.162-7.987-.48ZM39.8 3.767c1.02 1.02.9 3.182-.18 4.083-2.282 1.861-5.765-1.621-3.903-3.903.9-1.081 3.062-1.201 4.083-.18ZM22.626 7.49c1.381 2.101 0 4.083-2.582 3.843-1.741-.18-2.042-.42-2.222-1.982-.18-1.14.12-1.982.84-2.522 1.142-.84 3.244-.48 3.964.66Zm34.348-.661c.72.54 1.02 1.381.84 2.522-.12 1.441-.48 1.861-1.861 1.982-3.243.36-4.624-2.582-2.102-4.324 1.622-1.14 1.802-1.14 3.123-.18Zm-49 7.146c1.021 1.02.901 3.182-.18 4.083-1.2 1.02-3.723.3-4.203-1.2-.84-2.643 2.462-4.805 4.383-2.883Zm63.411.24c1.141 1.08 1.201 1.681.36 3.303-1.2 2.221-4.803 1.08-4.803-1.562 0-2.522 2.642-3.542 4.444-1.741ZM54.632 43.339c1.681.6 2.462 1.26 2.582 2.101l.18 1.321-19.516-.06c-18.615-.06-19.575-.12-19.575-1.14 0-2.523 6.545-3.483 21.917-3.243 8.107.18 12.79.48 14.412 1.02Zm-2.462 13.09c1.261.3 2.762 1.02 3.303 1.501.78.84.78 1.081.06 1.802-.78.72-2.402.78-9.608.42-4.804-.3-12.31-.3-16.754 0-7.866.54-9.667.24-9.667-1.321 0-.96 3.422-2.282 7.265-2.882 4.564-.72 22.038-.36 25.401.48Z"/>
  <path fill="#fff" d="M52.17 56.429c1.261.3 2.762 1.02 3.303 1.501.78.84.78 1.081.06 1.802-.78.72-2.402.78-9.608.42-4.804-.3-12.31-.3-16.754 0-7.866.54-9.667.24-9.667-1.321 0-.96 3.422-2.282 7.265-2.882 4.564-.72 22.038-.36 25.401.48Zm2.462-13.09c1.681.6 2.462 1.26 2.582 2.101l.18 1.321-19.516-.06c-18.615-.06-19.575-.12-19.575-1.14 0-2.523 6.545-3.483 21.917-3.243 8.107.18 12.79.48 14.412 1.02Zm16.753-29.124c1.141 1.08 1.201 1.681.36 3.303-1.2 2.221-4.803 1.08-4.803-1.562 0-2.522 2.642-3.542 4.444-1.741ZM56.974 6.829c.72.54 1.02 1.381.84 2.522-.12 1.441-.48 1.861-1.861 1.982-3.243.36-4.624-2.582-2.102-4.324 1.622-1.14 1.802-1.14 3.123-.18ZM39.8 3.767c1.02 1.02.9 3.182-.18 4.083-2.282 1.861-5.765-1.621-3.903-3.903.9-1.081 3.062-1.201 4.083-.18ZM22.626 7.49c1.381 2.101 0 4.083-2.582 3.843-1.741-.18-2.042-.42-2.222-1.982-.18-1.14.12-1.982.84-2.522 1.142-.84 3.244-.48 3.964.66ZM7.974 13.975c1.021 1.02.901 3.182-.18 4.083-1.2 1.02-3.723.3-4.203-1.2-.84-2.643 2.462-4.805 4.383-2.883Z"/>
</svg>
