<svg xmlns="http://www.w3.org/2000/svg" width="65" height="70" fill="none" viewBox="0 0 65 70">
  <path fill="#000" d="M29.783 1.921c-.585 1.873-.878 2.107-2.692 2.107-1.873 0-1.99.117-1.99 1.99 0 1.756.293 2.224 2.341 3.336 1.288.761 2.341 1.756 2.341 2.224 0 .469-1.229 2.166-2.75 3.688-2.459 2.458-2.751 3.102-2.985 6.028-.117 1.756-.351 3.219-.527 3.219-.117 0-.995-.527-1.873-1.23-3.804-2.808-10.71-3.218-15.276-.819-2.341 1.23-5.092 4.624-5.794 7.141-1.346 4.8-.527 7.609 4.448 15.217 3.687 5.56 4.682 8.253 5.209 14.398.585 6.438 1.814 7.901 8.077 9.54 7.199 1.932 23.996 1.522 30.259-.644 4.214-1.521 5.033-2.692 5.502-7.842.643-6.555 1.99-10.301 6.028-16.388 3.863-5.794 4.507-7.843 4.097-12.408-.878-8.838-11.062-13.345-19.783-8.838l-3.394 1.756-.41-3.22c-.351-2.808-.702-3.51-2.985-5.676-3.16-3.044-3.277-4.507-.527-6.204 1.698-1.054 2.049-1.64 2.049-3.278 0-1.873-.117-1.99-1.99-1.99-1.697 0-1.99-.234-2.458-1.931C34.232.575 33.822.165 32.3.048c-1.639-.175-1.873.059-2.517 1.873ZM18.37 25.684c5.736 2.75 9.775 8.193 10.535 14.046.644 4.683.82 5.15 2.342 5.502 2.4.585 3.804-.527 3.804-3.102 0-8.37 8.486-17.617 16.095-17.617 5.619 0 9.072 3.102 9.072 8.135 0 4.273-4.74 12.233-9.072 15.218-1.697 1.112-2.75 1.346-6.204 1.346-2.282-.059-6.087-.351-8.486-.702-3.044-.469-5.56-.469-8.604-.059-4.39.644-8.077.878-11.53.702-1.697-.058-2.634-.702-5.56-3.745-6.087-6.38-8.194-12.877-5.619-17.15 2.224-3.628 8.487-4.857 13.227-2.574Zm27.158 33.01c1.111.35 2.107.936 2.224 1.346.526 1.521-1.873 1.814-8.78 1.229a76.456 76.456 0 0 0-13.695 0c-6.672.585-8.955.292-8.955-1.112 0-1.054 3.16-1.815 9.072-2.224 7.023-.527 17.383-.117 20.134.76Z"/>
  <path fill="#fff" d="M45.528 58.694c1.111.35 2.107.936 2.224 1.346.526 1.521-1.873 1.814-8.78 1.229a76.456 76.456 0 0 0-13.695 0c-6.672.585-8.955.292-8.955-1.112 0-1.054 3.16-1.815 9.072-2.224 7.023-.527 17.383-.117 20.134.76ZM18.37 25.684c5.736 2.75 9.775 8.193 10.535 14.046.644 4.683.82 5.15 2.342 5.502 2.4.585 3.804-.527 3.804-3.102 0-8.37 8.486-17.617 16.095-17.617 5.619 0 9.072 3.102 9.072 8.135 0 4.273-4.74 12.233-9.072 15.218-1.697 1.112-2.75 1.346-6.204 1.346-2.282-.059-6.087-.351-8.486-.702-3.044-.469-5.56-.469-8.604-.059-4.39.644-8.077.878-11.53.702-1.697-.058-2.634-.702-5.56-3.745-6.087-6.38-8.194-12.877-5.619-17.15 2.224-3.628 8.487-4.857 13.227-2.574Z"/>
  <path fill="#000" d="M10.645 27.498c-2.341.702-4.273 3.102-4.273 5.384 0 2.693 2.224 6.79 5.56 10.126 2.634 2.634 3.278 2.985 6.146 3.336 3.57.41 7.491-.293 8.31-1.463 1.23-1.815-.702-8.897-3.335-12.408-3.22-4.097-8.253-6.146-12.408-4.975Zm38.043-.058c-5.326 1.229-9.657 6.613-10.77 13.344-.76 4.74.176 5.502 6.205 5.502 4.33 0 4.507-.059 7.199-2.283 3.628-3.044 6.555-7.901 6.555-10.886 0-1.698-.41-2.693-1.697-3.98-.937-.937-2.224-1.698-2.868-1.698a9.771 9.771 0 0 1-1.99-.234c-.41-.117-1.639 0-2.634.234Z"/>
  <path fill="#fff" d="M35 6c-2 0-3 1-3 3 0-2-1-3-3-3 2 0 3-1 3-3 0 2 1 3 3 3Z"/>
</svg>
