<svg xmlns="http://www.w3.org/2000/svg" width="52" height="71" fill="none" viewBox="0 0 52 71">
  <path fill="#000" d="M22.024 1.132c-5.047 1.507-7.603 6.747-5.965 12.185.853 2.817.853 3.21-.065 3.734-2.556 1.441-5.506 4.651-6.227 6.813-1.573 4.717.459 11.464 4.13 13.56l2.031 1.246-2.228 1.113c-3.343 1.77-8.26 6.355-10.095 9.434C1.442 52.886 0 59.37 0 65.464v5.11h51.325l-.393-6.748c-.197-3.669-.852-8.189-1.442-10.023-1.574-4.652-5.179-9.172-9.833-12.316L35.66 38.8l2.753-2.62c3.08-2.949 3.933-5.7 3.212-10.483-.394-2.948-3.343-6.813-6.424-8.516-1.114-.59-1.114-.852-.131-3.734C37.822 5.52 30.546-1.358 22.024 1.132Zm5.572 3.93c1.18 0 3.212 2.62 3.212 4.193 0 .852-.59 2.817-1.245 4.324-.721 1.572-1.115 3.21-.918 3.668.131.46 1.442 1.573 2.884 2.555 3.409 2.228 5.179 5.176 5.179 8.713 0 2.948-1.115 4.455-5.769 8.19-1.9 1.506-1.114 3.078 3.016 5.895 8.455 5.83 11.864 11.006 12.454 18.802l.328 4.586H4.392l.328-4.586c.59-7.927 3.54-12.25 12.978-19.195 3.802-2.817 4.064-4.389.983-6.813-6.03-4.651-5.637-11.006.918-15.657 2.884-2.096 3.343-3.865 1.704-6.813-2.425-4.258.525-9.237 4.786-8.124.524.131 1.18.262 1.507.262Z"/>
  <path fill="#fff" d="M27.596 5.062c1.18 0 3.212 2.62 3.212 4.193 0 .852-.59 2.817-1.245 4.324-.721 1.572-1.115 3.21-.918 3.668.131.46 1.442 1.573 2.884 2.555 3.409 2.228 5.179 5.176 5.179 8.713 0 2.948-1.115 4.455-5.769 8.19-1.9 1.506-1.114 3.078 3.016 5.895 8.455 5.83 11.864 11.006 12.454 18.802l.328 4.586H4.392l.328-4.586c.59-7.927 3.54-12.25 12.978-19.195 3.802-2.817 4.064-4.389.983-6.813-6.03-4.651-5.637-11.006.918-15.657 2.884-2.096 3.343-3.865 1.704-6.813-2.425-4.258.525-9.237 4.786-8.124.524.131 1.18.262 1.507.262Z"/>
</svg>
