<svg xmlns="http://www.w3.org/2000/svg" width="60" height="71" fill="none" viewBox="0 0 60 71">
  <path fill="#000" d="M3.074 2.382C1.44 4.082 1.308 4.671 1.308 9.51v5.295l5.168 4.511 5.233 4.446v12.094l.066 12.095-5.888 5.884L0 59.718v4.576c0 2.746.327 4.969.785 5.426.589.589 7.85.785 28.651.785 32.25 0 30.091.457 30.091-6.276V60.37l-6.214-6.341-6.215-6.342v-23.47l5.234-4.445 5.233-4.511V9.639c0-5.23-.131-5.687-1.832-7.322C54.098.748 53.443.552 48.995.552c-5.494 0-7.98 1.307-7.326 3.923.327 1.111.065 1.307-1.7 1.307-1.702 0-2.029-.261-2.029-1.504 0-2.942-1.831-3.726-8.634-3.726-6.738 0-8.373.784-8.373 3.792 0 1.111-.393 1.438-1.636 1.438-1.308 0-1.635-.327-1.635-1.504 0-2.81-1.897-3.726-7.588-3.726-4.906 0-5.364.13-7 1.83Zm10.663 4.904c0 2.353 1.243 3.072 5.299 3.072 4.971 0 5.822-.392 5.822-2.68V5.782h4.578c4.318 0 4.58.065 4.58 1.504 0 2.419 1.242 3.072 6.018 3.072 3.794 0 4.513-.196 5.102-1.372.458-.72.589-1.766.392-2.289-.261-.719.458-.915 3.467-.915 4.383 0 4.645.327 4.645 5.1 0 2.941-.131 3.203-3.925 6.145l-3.86 3.138H13.41l-3.925-3.138c-3.86-3.138-3.925-3.269-3.925-6.407.066-1.765.262-3.596.589-4.053.262-.458 1.897-.785 4.056-.785 3.27 0 3.532.13 3.532 1.504Zm29.436 27.916v10.46l-13.475-.131-13.41-.196-.13-10.33-.132-10.264h27.147v10.46Zm4.383 17.782c1.897 1.896 3.467 3.596 3.467 3.792 0 .196-9.616.261-21.39.13l-21.39-.196 3.532-3.53 3.532-3.596h28.782l3.467 3.4Zm8.046 10.656v2.288H3.924v-4.576h51.678v2.288Z"/>
  <path fill="#fff" d="M43.173 35.202v10.46l-13.475-.131-13.41-.196-.13-10.33-.132-10.264h27.147v10.46ZM13.737 7.286c0 2.353 1.243 3.072 5.299 3.072 4.971 0 5.822-.392 5.822-2.68V5.782h4.578c4.318 0 4.58.065 4.58 1.504 0 2.419 1.242 3.072 6.018 3.072 3.794 0 4.513-.196 5.102-1.372.458-.72.589-1.766.392-2.289-.261-.719.458-.915 3.467-.915 4.383 0 4.645.327 4.645 5.1 0 2.941-.131 3.203-3.925 6.145l-3.86 3.138H13.41l-3.925-3.138c-3.86-3.138-3.925-3.269-3.925-6.407.066-1.765.262-3.596.589-4.053.262-.458 1.897-.785 4.056-.785 3.27 0 3.532.13 3.532 1.504Zm33.819 45.698c1.897 1.896 3.467 3.596 3.467 3.792 0 .196-9.616.261-21.39.13l-21.39-.196 3.532-3.53 3.532-3.596h28.782l3.467 3.4Zm8.046 10.656v2.288H3.924v-4.576h51.678v2.288Z"/>
</svg>
