<svg xmlns="http://www.w3.org/2000/svg" width="72" height="71" fill="none" viewBox="0 0 72 71">
  <path fill="#000" d="M30.028 2.513c-.916 1.047-1.766 2.223-1.897 2.616-.131.457-1.505.13-3.664-.981-1.831-.915-4.906-1.896-6.738-2.092l-3.336-.392.457 3.988c.524 4.577-.392 8.5-3.86 15.953C4.842 35.01 2.16 41.09 1.179 44.162L0 47.627l1.897 2.616c2.094 2.942 5.496 4.838 7.85 4.38 1.113-.196 2.094.197 3.206 1.308 2.552 2.55 4.645 1.83 7.59-2.42 1.373-1.96 3.597-4.707 4.971-6.08 2.486-2.615 7.785-6.08 8.374-5.492.785.785-.916 4.315-5.3 10.919-4.775 7.061-7.523 13.011-7.523 16.019v1.634h49.59l.457-4.773c.589-6.146-.589-18.895-2.29-25.63-2.486-9.61-7.85-18.895-14.196-24.518-4.187-3.661-7.458-5.296-11.71-5.688-3.271-.327-3.533-.523-4.252-2.616C37.748 4.41 34.346.552 32.84.552c-.654 0-1.897.85-2.813 1.961ZM21.196 6.83l2.094 1.046-1.636.915c-2.42 1.373-3.205 1.112-3.205-1.046 0-2.288.065-2.288 2.747-.915ZM34.15 8.92c1.962 6.277 1.635 6.015 6.738 6.015 3.467 0 5.103.327 6.738 1.373 3.598 2.223 9.552 9.284 12.495 14.711 4.253 7.977 5.496 13.273 5.888 24.911l.393 9.938-19.757.196c-15.701.131-19.692 0-19.692-.653 0-1.243 2.42-5.754 5.823-10.92 4.58-6.865 5.953-10.395 5.953-15.364 0-1.635.72-5.362 1.57-8.238 1.701-5.689 1.636-7.127-.327-6.146-1.636.915-4.252 5.557-5.168 9.153-.654 2.615-1.112 3.204-3.73 4.577-3.99 2.092-9.027 6.8-12.298 11.376-2.813 3.858-4.056 4.316-3.73 1.373.197-1.7.066-1.765-1.635-1.373-4.972 1.243-5.757 1.177-7.589-.653-1.439-1.373-1.766-2.223-1.439-3.466.196-.98 3.14-7.453 6.477-14.45 3.336-6.995 6.476-13.664 6.934-14.841.655-1.7 1.505-2.354 4.384-3.465 5.757-2.158 8.7-3.858 9.486-5.558.915-2.027 1.504-1.634 2.486 1.504Z"/>
  <path fill="#fff" d="M34.15 8.921c1.962 6.277 1.635 6.015 6.738 6.015 3.467 0 5.103.327 6.738 1.373 3.598 2.223 9.552 9.284 12.495 14.711 4.253 7.977 5.496 13.273 5.888 24.911l.393 9.938-19.757.196c-15.701.131-19.692 0-19.692-.653 0-1.243 2.42-5.754 5.823-10.92 4.58-6.865 5.953-10.395 5.953-15.364 0-1.635.72-5.362 1.57-8.238 1.701-5.689 1.636-7.127-.327-6.146-1.636.915-4.252 5.557-5.168 9.153-.654 2.615-1.112 3.204-3.73 4.577-3.99 2.092-9.027 6.8-12.298 11.376-2.813 3.858-4.056 4.316-3.73 1.373.197-1.7.066-1.765-1.635-1.373-4.972 1.243-5.757 1.177-7.589-.653-1.439-1.373-1.766-2.223-1.439-3.466.196-.98 3.14-7.453 6.477-14.45 3.336-6.995 6.476-13.664 6.934-14.841.655-1.7 1.505-2.354 4.384-3.465 5.757-2.158 8.7-3.858 9.486-5.558.915-2.027 1.504-1.634 2.486 1.504ZM21.196 6.829l2.094 1.046-1.636.915c-2.42 1.373-3.205 1.112-3.205-1.046 0-2.288.065-2.288 2.747-.915Z"/>
  <path fill="#000" d="M18.645 21.474c-2.159 1.308-3.271 3.727-2.552 5.558.524 1.438 2.16 1.242 5.43-.654 2.683-1.634 4.122-3.988 3.14-5.492-.654-1.111-3.728-.85-6.018.588ZM7 43.443c-1.44 1.504-.981 3.792.785 4.054 1.963.261 3.467-2.55 2.159-4.12-1.047-1.242-1.636-1.242-2.944.066Z"/>
</svg>
