<?xml version="1.0" encoding="utf-8"?>
<!-- Generator: Adobe Illustrator 21.1.0, SVG Export Plug-In . SVG Version: 6.00 Build 0)  -->
<svg version="1.1" xmlns="http://www.w3.org/2000/svg" xmlns:xlink="http://www.w3.org/1999/xlink" x="0px" y="0px"
	 viewBox="0 0 64 64" style="enable-background:new 0 0 64 64;" xml:space="preserve">
<style type="text/css">
	.st0{display:none;}
	.st1{display:inline;opacity:0.1;}
	.st2{fill:#FFFFFF;}
	.st3{fill:#FF0000;}
	.st4{fill:none;}
</style>
<g id="safe_border" class="st0">
	<g class="st1">
		<rect x="1" y="1" class="st2" width="62" height="62"/>
		<path class="st3" d="M62,2v60H2V2H62 M64,0H0v64h64V0L64,0z"/>
	</g>
</g>
<g id="final_icon">
	<g>
		<rect x="46.5" y="7.9" transform="matrix(0.7071 -0.7071 0.7071 0.7071 4.288 39.2665)" class="st4" width="6" height="13.2"/>
		<polygon class="st4" points="8.4,51 7.2,56.8 7.2,56.8 8.4,51.1 		"/>
		
			<rect x="10.5" y="26.9" transform="matrix(0.7071 -0.7071 0.7071 0.7071 -14.7977 31.3609)" class="st4" width="40" height="13.2"/>
		<path d="M47,2L6,43L2,62l19-4l41-41L47,2z M7.2,56.8L7.2,56.8L7.2,56.8L8.4,51l0,0l1-4.7l8.2,8.2L7.2,56.8z M21,52.3L11.7,43
			l28.3-28.3l9.3,9.3L21,52.3z M42.7,11.9L47,7.7l9.3,9.3l-4.3,4.3L42.7,11.9z"/>
	</g>
</g>
</svg>
