<svg width="24" height="24" viewBox="0 0 24 24" fill="none" xmlns="http://www.w3.org/2000/svg">
<path fill-rule="evenodd" clip-rule="evenodd" d="M7.00098 12.2639H17.0086L15.6363 10.4283C14.8399 9.36311 14.8399 7.90079 15.6363 6.83562L17.0086 5H7.00098V12.2639ZM5.00098 13.2639C5.00098 13.8162 5.44869 14.2639 6.00098 14.2639H19.0048C19.8281 14.2639 20.2987 13.3246 19.8057 12.6651L17.2381 9.23073C16.9727 8.87567 16.9727 8.38823 17.2381 8.03317L19.8057 4.59878C20.2987 3.93935 19.8281 3 19.0048 3H6.00098C5.44869 3 5.00098 3.44772 5.00098 4V13.2639Z" fill="#273237"/>
<path fill-rule="evenodd" clip-rule="evenodd" d="M5 20.9998V11.7787H7V20.9998H5Z" fill="#273237"/>
</svg>
