<svg xmlns="http://www.w3.org/2000/svg" width="24" height="24" viewBox="0 0 24 24" fill="none">
<path d="M20 12C20 13.9197 19.3097 15.7753 18.0552 17.2283C16.8006 18.6812 15.0655 19.6347 13.1663 19.9145C11.2672 20.1944 9.33074 19.782 7.71039 18.7527C6.09004 17.7234 4.89383 16.1458 4.34008 14.3077C3.78633 12.4697 3.91196 10.4938 4.69405 8.7407C5.47614 6.9876 6.86253 5.57417 8.60021 4.75837C10.3379 3.94257 12.311 3.7788 14.1594 4.29694C15.3269 4.62422 16.3955 5.20978 17.2915 6.00001L15.5 6.00001V8.00001H19.5C20.0523 8.00001 20.5 7.55229 20.5 7.00001V3.00001H18.5V4.40066C17.4038 3.46308 16.1092 2.76644 14.6992 2.37118C12.3887 1.72349 9.92235 1.92821 7.75026 2.94796C5.57817 3.96771 3.84518 5.7345 2.86757 7.92588C1.88996 10.1173 1.73291 12.5871 2.4251 14.8847C3.11729 17.1822 4.61255 19.1543 6.63798 20.4409C8.66342 21.7276 11.084 22.243 13.4579 21.8932C15.8318 21.5433 18.0008 20.3516 19.569 18.5353C20.6953 17.2309 21.4577 15.6669 21.798 14C21.9315 13.346 22 12.6762 22 12H20Z" fill="#ffffff"/>
</svg>