<svg width="24" height="24" viewBox="0 0 24 24" fill="none" xmlns="http://www.w3.org/2000/svg">
<path fill-rule="evenodd" clip-rule="evenodd" d="M19.5955 20.8548L13.926 15.1856L15.3401 13.7714L21.0096 19.4405L19.5955 20.8548Z" fill="#273237"/>
<path fill-rule="evenodd" clip-rule="evenodd" d="M10.207 5.14648C7.32695 5.14648 4.99219 7.48125 4.99219 10.3613C4.99219 13.2414 7.32695 15.5762 10.207 15.5762C13.0871 15.5762 15.4219 13.2414 15.4219 10.3613C15.4219 7.48125 13.0871 5.14648 10.207 5.14648ZM2.99219 10.3613C2.99219 6.37668 6.22238 3.14648 10.207 3.14648C14.1917 3.14648 17.4219 6.37668 17.4219 10.3613C17.4219 14.346 14.1917 17.5762 10.207 17.5762C6.22238 17.5762 2.99219 14.346 2.99219 10.3613Z" fill="#273237"/>
</svg>
