<svg xmlns="http://www.w3.org/2000/svg" width="61" height="70" fill="none" viewBox="0 0 61 70">
  <path fill="#000" d="M4.455 1.849c-1.585 1.65-1.783 2.31-1.783 6.8v4.953l4.952 4.886 4.952 4.887V46.55l-6.272 6.273L.03 59.097v4.357c0 7-2.18 6.537 30.175 6.537 32.157 0 29.912.529 29.912-6.669v-4.226l-5.943-5.942-5.943-5.943V23.375l4.622-4.557 4.622-4.556V8.584c0-5.084-.132-5.877-1.518-7.131C54.703.264 53.647 0 49.817 0c-4.952 0-6.207.594-6.207 3.103 0 1.321-.33 1.52-2.31 1.52-1.982 0-2.312-.199-2.312-1.52C38.988.396 37.866 0 30.404 0c-7.461 0-8.584.396-8.584 3.103 0 1.321-.33 1.52-2.31 1.52-1.783 0-2.312-.265-2.312-1.19C17.198 1.057 15.085 0 10.53 0 6.7 0 6.04.198 4.455 1.849ZM43.61 24.76v2.311l-13.338-.132-13.404-.198-.198-2.179-.198-2.113H43.61v2.311Zm0 21.46v1.98H16.538v-3.96H43.61v1.98Z"/>
  <path fill="#fff" d="M43.61 46.22v1.982H16.538V44.24H43.61v1.98Zm0-21.459v2.311l-13.338-.132-13.404-.198-.198-2.179-.198-2.113H43.61v2.311Z"/>
</svg>
