<svg xmlns="http://www.w3.org/2000/svg" width="72" height="70" fill="none" viewBox="0 0 72 70">
  <path fill="#000" d="m29.608 2.551-2.093 2.552-3.533-1.636c-1.962-.916-4.972-1.7-6.607-1.7l-3.01-.131.131 4.579c.131 5.495-.654 8.047-7.13 21.85-2.617 5.561-5.43 12.038-6.216 14.524-1.439 4.252-1.504 4.448-.327 6.28 1.636 2.748 4.056 4.449 7.59 5.43 2.092.589 3.335.654 4.12.196.786-.523 1.178-.327 1.702.72.392.785 1.308 1.44 2.093 1.57 1.112.196 2.093-.785 4.71-4.645 1.767-2.682 4.187-5.626 5.365-6.607 2.355-2.028 7.13-4.58 7.589-4.122.654.654-2.486 6.542-6.215 11.776-2.16 2.944-4.318 6.215-4.907 7.327-.785 1.57-2.42 7.85-2.42 9.159 0 .196 11.317.327 25.121.327h25.056l.458-3.01c1.44-10.925-1.308-28.523-5.953-37.878C59.375 17.664 51 10.271 42.43 9.224c-3.075-.392-3.271-.523-4.122-3.14C37.393 3.336 34.253 0 32.552 0c-.523 0-1.831 1.178-2.944 2.551Zm13.608 12.823c6.804 2.028 15.962 12.888 19.233 22.897 1.963 5.953 3.14 13.411 3.14 19.888 0 4.71-.98 6.935-2.747 6.28-1.374-.523-1.832-2.355-1.832-7.916 0-6.15-1.57-15.112-3.532-19.888C53.944 28 46.748 20.215 40.075 17.86c-3.14-1.112-4.122-2.355-2.42-3.01 1.308-.588 2.027-.523 5.56.524Zm-19.038 5.364c.197.458-.85 2.028-2.224 3.468-1.897 2.093-3.01 2.747-4.776 2.813-3.336.196-3.467-2.094-.392-5.168 1.962-1.963 2.682-2.29 4.71-2.094 1.374.13 2.552.523 2.682.981ZM7.365 44.355c0 1.636-1.373 3.271-2.944 3.533-1.046.13-1.243-.131-1.112-1.44.262-2.682 4.056-4.644 4.056-2.093Z"/>
  <path fill="#fff" d="M43.216 15.374c6.804 2.028 15.962 12.888 19.233 22.897 1.963 5.953 3.14 13.411 3.14 19.888 0 4.71-.98 6.935-2.747 6.28-1.374-.523-1.832-2.355-1.832-7.916 0-6.15-1.57-15.112-3.532-19.888C53.944 28 46.748 20.215 40.075 17.86c-3.14-1.112-4.122-2.355-2.42-3.01 1.308-.588 2.027-.523 5.56.524Zm-19.038 5.364c.197.458-.85 2.028-2.224 3.468-1.897 2.093-3.01 2.747-4.776 2.813-3.336.196-3.467-2.094-.392-5.168 1.962-1.963 2.682-2.29 4.71-2.094 1.374.13 2.552.523 2.682.981ZM7.365 44.355c0 1.636-1.373 3.271-2.944 3.533-1.046.13-1.243-.131-1.112-1.44.262-2.682 4.056-4.644 4.056-2.093Z"/>
</svg>
