<svg xmlns="http://www.w3.org/2000/svg" width="52" height="71" fill="none" viewBox="0 0 52 71">
  <path fill="#000" d="M20.361 2.246c-4.452 2.29-5.957 6.609-4.19 11.647.59 1.57.982 2.945.917 3.01-.131.066-1.31.72-2.619 1.57-4.386 2.618-6.35 9.554-4.19 14.658.458 1.177 1.833 2.944 3.012 3.991 1.702 1.44 1.964 1.898 1.244 2.356-3.274 1.832-7.988 6.02-9.69 8.506C1.768 52.564.72 56.163.393 63.819L0 70.885h51.46l-.392-7.066c-.262-4.777-.786-8.18-1.768-10.731-1.637-4.384-6.089-9.619-10.214-12.04-1.571-.916-2.88-1.832-2.88-2.029 0-.196.785-.916 1.702-1.7 2.03-1.571 4.124-5.89 4.19-8.572 0-3.468-1.506-6.936-3.928-9.161-1.375-1.178-2.816-2.29-3.274-2.486-.72-.197-.72-.72-.13-2.487.458-1.178.785-3.402.785-4.973 0-6.805-8.446-10.993-15.19-7.394Z"/>
</svg>
