<svg xmlns="http://www.w3.org/2000/svg" width="66" height="70" fill="none" viewBox="0 0 66 70">
  <path fill="#000" d="M28.533 1.059c-2.675 1.672-3.344 5.517-1.56 8.916l.835 1.617-2.563 1.226c-1.393.668-4.347 3.009-6.632 5.238-3.455 3.4-4.18 4.402-5.015 7.189-1.394 4.793-.335 8.972 3.79 14.768 1.671 2.34 1.727 2.452 1.002 5.015-1.727 6.075-1.226 7.635 2.843 8.248 1.17.223 2.117.557 2.117.725 0 .891-5.461 1.727-10.923 1.727-6.798 0-8.192.502-10.7 3.957L0 62.025l2.173 3.233c1.226 1.783 2.787 3.622 3.4 4.068 1.059.724 1.337.724 2.508-.056.78-.501 4.57-1.281 8.749-1.839 8.972-1.226 11.313-1.839 13.988-3.622l2.117-1.45 1.784 1.171c3.176 1.95 6.52 2.842 14.433 3.901 5.294.669 8.025 1.282 8.75 1.95.78.725 1.281.78 2.173.335 1.059-.613 5.629-6.743 5.629-7.635 0-.836-3.01-4.29-4.682-5.294-1.393-.836-2.786-1.059-7.411-1.059-5.629 0-11.313-.891-11.313-1.783 0-.223.613-.446 1.393-.446 1.95 0 4.57-1.449 4.96-2.675.167-.501-.167-2.675-.78-4.792l-1.06-3.79 2.174-3.176c5.406-7.97 5.071-14.323-1.17-20.62-2.34-2.34-6.966-5.629-8.972-6.353-.836-.279-.78-.502.222-2.563 1.45-2.898 1.004-5.74-1.225-7.97C36.502.223 35.833 0 33.27 0c-1.95 0-3.567.39-4.737 1.059Zm6.186 3.734c1.059 1.003 1.114 1.56.334 3.065-1.114 2.062-4.458 1.003-4.458-1.45 0-2.34 2.452-3.287 4.124-1.615Zm-.112 17.053c-.167 2.061-.167 2.117 1.784 2.117 1.894 0 2.006.112 2.006 1.895s-.167 1.95-1.783 2.118c-1.728.167-1.84.334-1.84 2.284 0 1.95-.111 2.062-1.783 2.062-1.783 0-1.839-.111-1.839-2.229 0-2.062-.111-2.229-1.616-2.229-1.338 0-1.616-.279-1.84-1.672-.278-2.006-.166-2.229 1.896-2.229 1.449 0 1.56-.167 1.56-2.285 0-2.173.056-2.229 1.84-2.062 1.727.168 1.782.279 1.615 2.23Zm8.08 16.94c.168.502 0 1.115-.445 1.394-.892.613-18.613.446-19.17-.167-.223-.223-.28-.78-.112-1.282.557-1.282 19.226-1.282 19.728.056Zm-.724 5.574c1.17.446 1.115 1.672-.055 2.173-.558.223-4.18.502-8.025.669-8.75.39-13.264-.78-10.087-2.564 1.003-.613 16.718-.836 18.167-.278Z"/>
  <path fill="#fff" d="M34.607 21.846c-.167 2.061-.167 2.117 1.784 2.117 1.894 0 2.006.112 2.006 1.895s-.167 1.95-1.783 2.118c-1.728.167-1.84.334-1.84 2.284 0 1.95-.111 2.062-1.783 2.062-1.783 0-1.839-.111-1.839-2.229 0-2.062-.111-2.229-1.616-2.229-1.338 0-1.616-.279-1.84-1.672-.278-2.006-.166-2.229 1.896-2.229 1.449 0 1.56-.167 1.56-2.285 0-2.173.056-2.229 1.84-2.062 1.727.168 1.782.279 1.615 2.23Zm8.081 16.941c.167.501 0 1.114-.446 1.393-.892.613-18.613.446-19.17-.167-.223-.223-.28-.78-.112-1.282.557-1.282 19.226-1.282 19.728.056Zm-.725 5.573c1.17.446 1.115 1.672-.055 2.173-.558.223-4.18.502-8.025.669-8.75.39-13.264-.78-10.087-2.564 1.003-.613 16.718-.836 18.167-.278ZM34.719 4.793c1.059 1.003 1.114 1.56.334 3.065-1.114 2.062-4.458 1.003-4.458-1.45 0-2.34 2.452-3.287 4.124-1.615Z"/>
</svg>
