<svg xmlns="http://www.w3.org/2000/svg" width="24" height="24" viewBox="0 0 24 24" fill="none">
<path fill-rule="evenodd" clip-rule="evenodd" d="M15.4568 17.5916L11.5551 13.5163C11.1987 13.144 10.9998 12.6485 10.9998 12.1332L10.9998 6.82304L12.9998 6.82304L12.9998 12.1332L16.9015 16.2085L15.4568 17.5916Z" fill="#ffffff"/>
<path fill-rule="evenodd" clip-rule="evenodd" d="M20 12C20 7.58172 16.4183 4 12 4V2C17.5228 2 22 6.47715 22 12C22 14.3298 21.202 16.4761 19.8651 18.1764L18.2929 16.9402C19.3626 15.5798 20 13.8657 20 12Z" fill="#ffffff"/>
<path fill-rule="evenodd" clip-rule="evenodd" d="M8.8784 2.15886C9.29173 2.05627 9.71507 2 10.1425 2C10.6947 2 11.1425 2.44772 11.1425 3C11.1425 3.55228 10.6947 4 10.1425 4C9.89103 4 9.62965 4.03308 9.3602 4.09996C8.82418 4.23301 8.2818 3.90633 8.14875 3.37031C8.01571 2.83429 8.34238 2.29191 8.8784 2.15886ZM6.3684 4.60562C6.77576 4.97854 6.80368 5.61109 6.43076 6.01845C6.02095 6.46611 5.64293 6.97106 5.31295 7.51594C5.02687 7.98835 4.41198 8.13939 3.93957 7.8533C3.46716 7.56721 3.31612 6.95232 3.60221 6.47991C3.99833 5.82581 4.45472 5.21507 4.95556 4.66797C5.32849 4.26061 5.96103 4.23269 6.3684 4.60562ZM3.19533 9.87107C3.74308 9.94173 4.12984 10.443 4.05919 10.9908C4.02011 11.2938 4 11.5954 4 11.8939C4 12.2536 4.02337 12.6074 4.06857 12.9539C4.14 13.5015 3.75396 14.0034 3.20631 14.0748C2.65867 14.1462 2.1568 13.7602 2.08537 13.2126C2.02901 12.7805 2 12.3403 2 11.8939C2 11.5057 2.02614 11.1185 2.07562 10.7349C2.14627 10.1872 2.64759 9.80042 3.19533 9.87107ZM4.27201 16.6446C4.70992 16.3081 5.33773 16.3903 5.67425 16.8282C6.10606 17.3901 6.60988 17.8939 7.17179 18.3257C7.60971 18.6623 7.69191 19.2901 7.35538 19.728C7.01886 20.1659 6.39106 20.2481 5.95314 19.9116C5.25339 19.3739 4.62614 18.7466 4.08841 18.0469C3.75189 17.6089 3.83409 16.9811 4.27201 16.6446ZM19.7547 16.9245C20.1395 17.3207 20.1302 17.9538 19.734 18.3385C19.3864 18.676 19.0492 18.9874 18.7195 19.2736C18.3024 19.6357 17.6708 19.5911 17.3088 19.174C16.9467 18.7569 16.9913 18.1254 17.4084 17.7633C17.7059 17.505 18.0156 17.2193 18.3407 16.9037C18.7369 16.519 19.37 16.5282 19.7547 16.9245ZM14.4146 20.7614C14.4957 21.3077 14.1186 21.8163 13.5724 21.8975C13.0935 21.9686 12.607 22 12.1061 22C11.6597 22 11.2195 21.971 10.7874 21.9146C10.2398 21.8432 9.85375 21.3413 9.92519 20.7937C9.99662 20.246 10.4985 19.86 11.0461 19.9314C11.3926 19.9766 11.7464 20 12.1061 20C12.5231 20 12.9103 19.9738 13.2786 19.9192C13.8249 19.838 14.3335 20.2151 14.4146 20.7614Z" fill="#ffffff"/>
</svg>