<svg xmlns="http://www.w3.org/2000/svg" width="24" height="24" viewBox="0 0 24 24" fill="none">
<path fill-rule="evenodd" clip-rule="evenodd" d="M11.9989 3.99219C10.3421 3.99219 8.99891 5.33533 8.99891 6.99219C8.99891 8.64904 10.3421 9.99219 11.9989 9.99219C13.6558 9.99219 14.9989 8.64904 14.9989 6.99219C14.9989 5.33533 13.6558 3.99219 11.9989 3.99219ZM6.99891 6.99219C6.99891 4.23076 9.23749 1.99219 11.9989 1.99219C14.7603 1.99219 16.9989 4.23076 16.9989 6.99219C16.9989 9.75361 14.7603 11.9922 11.9989 11.9922C9.23749 11.9922 6.99891 9.75361 6.99891 6.99219Z" fill="#ffffff"/>
<path fill-rule="evenodd" clip-rule="evenodd" d="M6.10534 19.0704H17.8925C17.6998 17.785 17.2925 16.7469 16.6135 15.9901C15.7837 15.0653 14.3996 14.3984 11.9989 14.3984C9.59823 14.3984 8.21413 15.0653 7.38435 15.9901C6.70532 16.7469 6.29802 17.785 6.10534 19.0704ZM5.89572 14.6544C7.21441 13.1847 9.21803 12.3984 11.9989 12.3984C14.7798 12.3984 16.7834 13.1847 18.1021 14.6544C19.3938 16.0941 19.8789 18.0274 19.9971 20.0109L20.0603 21.0704H3.9375L4.00069 20.0109C4.11897 18.0274 4.60401 16.0941 5.89572 14.6544Z" fill="#ffffff"/>
</svg>