<svg xmlns="http://www.w3.org/2000/svg" width="76" height="71" fill="none" viewBox="0 0 76 71">
  <path fill="#000" d="M33.444 2.379c-1.974 2.033-2.153 3.587-.777 7.295 1.256 3.408 1.256 11.839-.06 17.818-.479 2.452-1.017 4.545-1.137 4.664-.3.3-3.889-9.029-4.846-12.796-.658-2.451-.838-4.723-.539-7.713.36-3.887.24-4.305-1.196-6.04-3.77-4.484-10.53-2.152-10.53 3.708 0 2.093.359 3.05 1.855 4.724.957 1.136 2.034 2.99 2.393 4.066.598 2.212.718 8.61.18 12.018l-.42 2.272-1.675-1.973c-3.948-4.484-4.966-6.996-4.846-11.42.12-4.784-.838-7.116-3.41-8.192C4.547 9.255 0 12.364 0 16.61c0 1.674.479 2.63 2.333 4.484 1.915 1.854 2.513 3.05 3.052 5.74.359 1.854 1.376 6.578 2.213 10.524 1.436 6.398 1.855 7.295 4.069 9.866 5.444 6.1 5.803 7.236 3.948 11.54-1.675 3.887-2.094 7.116-1.077 8.491 1.257 1.735 7.36 2.751 19.265 3.17 11.368.358 21.599-.419 25.248-1.914 2.034-.837 2.274-1.495 1.975-5.381-.06-.957-.659-2.75-1.257-4.007-2.094-4.125-1.675-5.321 4.009-12.317 2.572-3.11 3.889-7.415 5.923-18.895.658-3.767 1.017-4.545 3.29-6.817 2.334-2.332 2.513-2.69 2.214-4.963-.598-4.604-5.205-7.235-8.675-4.963-2.693 1.735-3.111 2.691-3.051 7.176.12 4.724-.898 7.235-4.428 11.48-1.974 2.332-2.094 2.392-2.453 1.136-.598-2.272-.419-10.882.3-13.035.418-1.136 1.495-3.109 2.392-4.365 2.274-3.109 2.274-5.74.06-8.192-1.436-1.554-2.154-1.913-4.307-1.913-2.214 0-2.872.299-4.368 1.973C49 7.342 48.94 7.581 49.3 11.408c.419 4.664-.897 10.703-3.71 17.1-2.033 4.545-1.974 4.545-3.41-3.587-1.196-6.936-1.136-8.79.36-14.41 1.017-3.887 1.076-4.963.478-6.398-1.615-3.887-6.521-4.784-9.573-1.734Zm6.522 3.408c.24 2.272-1.077 3.528-3.171 2.99-1.197-.3-1.496-.718-1.496-2.392 0-2.452.419-2.87 2.692-2.631 1.496.18 1.795.478 1.975 2.033ZM21.778 7.401c.718.539 1.017 1.376.837 2.512-.12 1.495-.478 1.853-1.974 1.973-1.137.18-1.974-.12-2.513-.837-1.017-1.435-1.017-1.794.419-3.229s1.795-1.435 3.23-.419Zm34.7 0c.718.539 1.018 1.376.838 2.512-.18 1.614-.419 1.794-2.214 1.794-2.632 0-3.65-2.093-1.854-3.887 1.376-1.375 1.795-1.435 3.23-.419Zm-48.82 7.116c1.197 1.196.898 3.946-.479 4.365-2.213.717-3.59-.18-3.59-2.392 0-1.076.36-2.152.779-2.272 1.316-.538 2.572-.419 3.29.299Zm63.419 0c1.615 1.614.419 4.664-1.735 4.664-1.257 0-2.932-1.555-2.932-2.69 0-2.094 3.171-3.469 4.667-1.974Zm-47.145 8.67c0 1.435 3.59 8.371 5.803 11.241l2.154 2.87 1.077-1.434c1.256-1.615 4.128-10.046 4.128-12.139 0-3.229.897-1.794 2.154 3.409 1.316 5.5 3.47 10.284 4.427 9.686 1.137-.717 4.966-7.055 6.88-11.36l2.095-4.784v3.886c0 4.066 1.376 13.514 2.034 14.172.18.179 2.812-2.093 5.803-5.143 2.992-2.99 5.265-4.963 5.086-4.424-.18.598-.778 3.109-1.317 5.56-.897 4.246-2.273 7.774-2.991 7.774-.12 0-1.376-.598-2.752-1.256-8.975-4.604-30.872-4.664-40.983-.18-2.453 1.077-3.53 1.256-4.128.778-.42-.299-1.316-3.11-2.034-6.1-.659-3.049-1.377-5.919-1.556-6.517-.18-.538 2.154 1.495 5.145 4.485 2.992 2.93 5.564 5.202 5.744 5.023.658-.658 2.034-10.106 2.034-14.172 0-2.75.18-3.647.598-2.99.3.48.599 1.256.599 1.615Zm19.145 18.716c3.77.358 7.957.897 9.273 1.255 2.274.598 4.488 2.033 4.488 2.93 0 .18-8.616.36-19.146.419-10.53 0-19.145-.18-19.145-.478 0-.778 2.573-2.332 5.085-3.05 1.317-.359 4.547-.837 7.18-1.076 2.632-.24 4.906-.479 5.085-.479.18-.06 3.41.18 7.18.479Zm7.897 8.79c.014 0 .027.002.04.003 3.97.355 4.027.36 3.55 1.91-.24.837-.419 2.392-.359 3.348v1.854l-2.991-.419c-1.676-.239-7.778-.478-13.522-.478-5.743 0-11.846.24-13.521.478l-2.991.419v-1.854c.06-.956-.18-2.511-.42-3.408-.418-1.554-.358-1.614 2.394-1.853 5.145-.36 23.752-.42 27.82 0Zm2.094 10.942c2.394.837 2.932 2.152 1.257 3.05-3.111 1.674-25.667 1.973-31.71.478-2.333-.598-3.11-2.332-1.555-3.289 2.273-1.435 28.18-1.614 32.008-.24Z"/>
  <path fill="#fff" d="M23.932 23.187c0 1.435 3.59 8.371 5.803 11.241l2.154 2.87 1.077-1.434c1.256-1.615 4.128-10.046 4.128-12.139 0-3.229.897-1.794 2.154 3.409 1.316 5.5 3.47 10.284 4.427 9.686 1.137-.717 4.966-7.055 6.88-11.36l2.095-4.784v3.886c0 4.066 1.376 13.514 2.034 14.172.18.179 2.812-2.093 5.803-5.143 2.992-2.99 5.265-4.963 5.086-4.424-.18.598-.778 3.109-1.317 5.56-.897 4.246-2.273 7.774-2.991 7.774-.12 0-1.376-.598-2.752-1.256-8.975-4.604-30.872-4.664-40.983-.18-2.453 1.077-3.53 1.256-4.128.778-.42-.299-1.316-3.11-2.034-6.1-.659-3.049-1.377-5.919-1.556-6.517-.18-.538 2.154 1.495 5.145 4.485 2.992 2.93 5.564 5.202 5.744 5.023.658-.658 2.034-10.106 2.034-14.172 0-2.75.18-3.647.598-2.99.3.48.599 1.256.599 1.615Z"/>
  <path fill="#fff" d="M43.077 41.903c3.77.358 7.957.897 9.273 1.255 2.274.598 4.488 2.033 4.488 2.93 0 .18-8.616.36-19.146.419-10.53 0-19.145-.18-19.145-.478 0-.778 2.573-2.332 5.085-3.05 1.317-.359 4.547-.837 7.18-1.076 2.632-.24 4.906-.479 5.085-.479.18-.06 3.41.18 7.18.479Zm7.897 8.79.04.003c3.97.355 4.027.36 3.55 1.91-.24.837-.419 2.392-.359 3.348v1.854l-2.991-.419c-1.676-.239-7.778-.478-13.522-.478-5.743 0-11.846.24-13.521.478l-2.991.419v-1.854c.06-.956-.18-2.511-.42-3.408-.418-1.554-.358-1.614 2.394-1.853 5.145-.36 23.752-.42 27.82 0Zm2.094 10.942c2.394.837 2.932 2.152 1.257 3.05-3.111 1.674-25.667 1.973-31.71.478-2.333-.598-3.11-2.332-1.555-3.289 2.273-1.435 28.18-1.614 32.008-.24Zm18.009-47.118c1.615 1.614.419 4.664-1.735 4.664-1.257 0-2.932-1.555-2.932-2.69 0-2.094 3.171-3.469 4.667-1.974ZM56.479 7.401c.718.539 1.017 1.376.837 2.512-.18 1.614-.419 1.794-2.214 1.794-2.632 0-3.65-2.093-1.854-3.887 1.376-1.375 1.795-1.435 3.23-.419ZM39.966 5.787c.24 2.272-1.077 3.528-3.171 2.99-1.197-.3-1.496-.718-1.496-2.392 0-2.452.419-2.87 2.692-2.631 1.496.18 1.795.478 1.975 2.033ZM21.778 7.401c.718.539 1.017 1.376.837 2.512-.12 1.495-.478 1.853-1.974 1.973-1.137.18-1.974-.12-2.513-.837-1.017-1.435-1.017-1.794.419-3.229s1.795-1.435 3.23-.419Zm-14.12 7.116c1.197 1.196.898 3.946-.479 4.365-2.213.717-3.59-.18-3.59-2.392 0-1.076.36-2.152.779-2.272 1.316-.538 2.572-.419 3.29.299Z"/>
</svg>
