<svg xmlns="http://www.w3.org/2000/svg" width="65" height="71" fill="none" viewBox="0 0 65 71">
  <path fill="#000" d="M29.945 2.536C29.244 4.17 28.718 4.58 27.2 4.754c-1.693.175-1.927.408-2.102 2.042-.175 1.693.058 1.984 2.16 3.093 2.745 1.342 3.27 3.56 1.227 4.669-2.336 1.225-4.672 5.252-4.672 7.995 0 2.334-.642 3.21-1.4 1.984-.877-1.342-5.782-2.976-9.052-2.976-7.123 0-12.087 3.91-13.138 10.27-.7 3.91.117 6.303 4.321 12.78 4.088 6.303 4.905 8.462 5.781 15.815.292 2.276.818 4.669 1.168 5.31.876 1.752 4.963 3.444 10.102 4.261 6.13.992 21.196.467 25.517-.875 4.788-1.46 6.189-3.21 6.656-8.17.642-6.361 1.869-9.98 5.022-14.765 3.912-6.01 5.313-9.22 5.313-12.488 0-3.502-.759-5.544-3.094-7.937-4.496-4.727-10.92-5.777-16.759-2.684-1.751.934-3.386 1.75-3.62 1.867-.292.117-.467-1.284-.467-3.093 0-3.093-.117-3.384-2.628-5.777-3.211-3.151-3.328-4.493-.583-6.186 1.693-1.05 2.043-1.634 2.043-3.268 0-1.867-.117-1.984-1.985-1.984-1.752 0-2.102-.233-2.686-2.043C33.798 1.02 33.33.552 32.222.552c-1.11 0-1.694.467-2.277 1.984Zm4.029 15.582c1.693.758 2.686 3.21 2.686 6.419 0 2.217-3.212 9.279-4.38 9.687-.35.117-1.46-1.342-2.51-3.268-2.862-5.252-2.57-11.613.642-12.897 1.751-.7 1.868-.7 3.562.058ZM18.208 26.52c5.78 2.743 11.211 10.27 11.561 16.048l.176 2.626-3.212.642c-1.752.35-6.014.817-9.46 1.05l-6.306.41-2.686-3.677c-4.554-6.186-5.372-9.571-3.153-13.831.993-1.984 2.22-2.918 5.84-4.377 1.4-.525 4.904 0 7.24 1.109Zm36.903-.35c2.861 1.284 4.73 3.735 5.255 6.886.467 2.86-.584 5.485-4.204 10.387l-2.744 3.735-3.562-.233c-1.985-.175-5.547-.409-8-.584-2.452-.116-5.197-.525-6.072-.875-1.518-.584-1.577-.817-1.285-3.268.409-3.793 3.503-9.746 6.423-12.255 3.036-2.626 7.708-4.902 10.043-4.902.993 0 2.803.525 4.146 1.109Zm-12.73 24.276c4.614.409 8.526.934 8.701 1.05.292.293-.759 7.937-1.11 8.288-.116.116-1.985-.234-4.262-.76-7.182-1.633-23.532-1.225-30.363.76-1.051.35-1.226-.059-1.869-3.91-.35-2.335-.584-4.319-.525-4.436.117-.058 3.328-.408 7.123-.758 3.796-.35 8-.876 9.285-1.109 1.284-.292 2.86-.35 3.503-.233.642.175 4.963.642 9.518 1.108Zm2.044 12.605c2.103.526 2.862 1.81 1.577 2.568-1.343.817-15.474 1.4-20.962.876-7.766-.76-9.226-1.46-6.365-2.977 2.686-1.459 20.495-1.75 25.75-.466Z"/>
  <path fill="#fff" d="M55.111 26.17c2.861 1.285 4.73 3.736 5.255 6.887.467 2.86-.584 5.485-4.204 10.387l-2.744 3.735-3.562-.233c-1.985-.175-5.547-.409-8-.584-2.452-.116-5.197-.525-6.072-.875-1.518-.584-1.577-.817-1.285-3.268.409-3.793 3.503-9.746 6.423-12.255 3.036-2.626 7.708-4.902 10.043-4.902.993 0 2.803.525 4.146 1.109Zm-36.903.35c5.78 2.744 11.211 10.272 11.561 16.05l.176 2.625-3.212.642c-1.752.35-6.014.817-9.46 1.05l-6.306.41-2.686-3.677c-4.554-6.186-5.372-9.571-3.153-13.831.993-1.984 2.22-2.918 5.84-4.377 1.4-.525 4.904 0 7.24 1.109Zm15.766-8.403c1.693.76 2.686 3.21 2.686 6.42 0 2.217-3.212 9.279-4.38 9.687-.35.117-1.46-1.342-2.51-3.268-2.862-5.252-2.57-11.613.642-12.897 1.751-.7 1.868-.7 3.562.058Zm8.408 32.33c4.613.409 8.525.934 8.7 1.05.292.293-.759 7.937-1.11 8.288-.116.116-1.985-.234-4.262-.76-7.182-1.633-23.532-1.225-30.363.76-1.051.35-1.226-.059-1.869-3.91-.35-2.335-.584-4.319-.525-4.436.117-.058 3.328-.408 7.123-.758 3.796-.35 8-.876 9.285-1.109 1.284-.292 2.86-.35 3.503-.233.642.175 4.963.642 9.518 1.108Zm2.043 12.606c2.103.525 2.862 1.809 1.577 2.567-1.343.817-15.474 1.4-20.962.876-7.766-.76-9.226-1.46-6.365-2.977 2.686-1.459 20.495-1.75 25.75-.466ZM35 7c-2 0-3 1-3 3 0-2-1-3-3-3 2 0 3-1 3-3 0 2 1 3 3 3Z"/>
</svg>
