<svg xmlns="http://www.w3.org/2000/svg" width="66" height="71" fill="none" viewBox="0 0 66 71">
  <path fill="#000" d="M30.196.872c-2.725.834-4.282 2.946-4.282 5.78 0 1.39.39 3.113.946 3.947.556.833.89 1.5.778 1.556-10.177 5.057-15.738 12.227-14.57 18.952.445 2.723 2.392 6.725 4.45 9.17l1.445 1.779-.89 3.556c-.5 1.946-.89 4.058-.89 4.67 0 1.61 1.446 2.778 4.338 3.5l2.614.667-2.78.779c-1.613.444-5.172.778-8.565.722-6.617 0-7.84.445-10.844 3.89L0 62.12l2.113 3.167c1.168 1.723 2.67 3.613 3.337 4.168 1.056 1 1.223 1 2.169.167.611-.556 3.392-1.167 8.174-1.778 8.453-1.056 11.956-2.001 14.848-3.89l2.058-1.39L34.7 63.73c2.947 1.778 6.562 2.723 14.347 3.835 4.338.611 7.674 1.39 8.564 2l1.501.945 2.225-2.5c1.279-1.39 2.725-3.28 3.225-4.169.946-1.667.946-1.723-.611-3.89-2.392-3.28-4.505-4.058-10.733-3.946-5.561.166-12.234-1.056-10.177-1.834.612-.223 1.947-.723 2.947-1.056 2.781-1.056 3.003-2.057 1.724-6.67l-1.167-4.057 1.167-1.445c2.392-3.057 4.06-6.336 4.672-9.226.5-2.556.445-3.501-.39-6.225-1.501-4.78-6.673-9.614-14.125-13.338-.11-.056.167-.667.612-1.39 2.78-4.446.445-9.56-4.671-10.17-1.057-.112-2.67 0-3.615.277ZM34.98 5.32c.611.611 1.112 1.5 1.112 1.945 0 1.167-2.002 3.057-3.226 3.057-1.668 0-3.002-1.39-3.002-3.057 0-2.835 3.058-4.002 5.116-1.945Zm1.39 9.948c3.503 1.612 9.009 5.947 10.621 8.392 2.781 4.224 2.114 10.393-1.39 12.45-3.503 2-21.02 2.223-25.247.278-3.114-1.445-4.615-7.114-2.836-10.838C19.686 20.936 28.75 14.211 32.7 14.211c.778 0 2.447.5 3.67 1.056Zm7.062 27.289L43.21 44.5H22.3l-.222-1.945-.167-1.945h21.688l-.167 1.945Zm-.166 5.558c1.557.778 1.501 2-.056 2.39-2.447.61-15.293 1.11-18.463.722-3.225-.445-4.448-1.445-3.17-2.723 1.39-1.39 19.186-1.779 21.689-.39Zm-6.84 7.503c3.725 2.667 6.562 3.445 14.68 4.112 6.007.5 7.063.723 7.897 1.779.779.889.834 1.39.39 2.278-.557 1-.946 1.056-4.839.723-11.233-.945-17.74-2.723-20.353-5.558l-1.335-1.445-1.445 1.445c-1.891 1.89-5.339 3.39-9.51 4.113-6.005 1-14.625 1.834-15.237 1.445-.333-.167-.612-.945-.612-1.723 0-2 2.392-2.779 9.454-3.168 7.285-.445 9.51-1.056 13.347-3.78 1.668-1.166 3.447-2.167 3.948-2.167.445 0 2.113.89 3.615 1.946Z"/>
  <path fill="#fff" d="M36.369 15.267c3.503 1.612 9.009 5.947 10.621 8.392 2.781 4.224 2.114 10.393-1.39 12.45-3.503 2-21.02 2.223-25.247.278-3.114-1.445-4.615-7.114-2.836-10.838C19.686 20.936 28.75 14.211 32.7 14.211c.778 0 2.447.5 3.67 1.056Zm7.062 27.289L43.21 44.5H22.3l-.222-1.945-.167-1.945h21.688l-.167 1.945Zm-.166 5.558c1.557.778 1.501 2-.056 2.39-2.447.61-15.293 1.11-18.463.722-3.225-.445-4.448-1.445-3.17-2.723 1.39-1.39 19.186-1.779 21.689-.39Zm-6.84 7.503c3.725 2.667 6.562 3.445 14.68 4.112 6.007.5 7.063.723 7.897 1.779.779.889.834 1.39.39 2.278-.557 1-.946 1.056-4.839.723-11.233-.945-17.74-2.723-20.353-5.558l-1.335-1.445-1.445 1.445c-1.891 1.89-5.339 3.39-9.51 4.113-6.005 1-14.625 1.834-15.237 1.445-.333-.167-.612-.945-.612-1.723 0-2 2.392-2.779 9.454-3.168 7.285-.445 9.51-1.056 13.347-3.78 1.668-1.166 3.447-2.167 3.948-2.167.445 0 2.113.89 3.615 1.946ZM34.979 5.319c.611.611 1.112 1.5 1.112 1.945 0 1.167-2.002 3.057-3.226 3.057-1.668 0-3.002-1.39-3.002-3.057 0-2.835 3.058-4.002 5.116-1.945Z"/>
  <path fill="#000" d="M30.975 22.381c-.167 1.834-.39 2.112-1.669 2.279-1.39.167-1.557.445-1.557 2.112 0 1.723.112 1.89 1.669 1.89s1.668.11 1.668 2.223c0 2.111.111 2.223 1.668 2.223s1.669-.111 1.669-2.168c0-2.056.11-2.223 1.835-2.39 1.557-.166 1.78-.389 1.946-1.945.167-1.612.056-1.778-1.668-1.945-1.669-.167-1.835-.334-2.002-2.279-.167-1.834-.334-2.056-1.78-2.056-1.445 0-1.612.222-1.78 2.056Z"/>
</svg>
